<?xml version="1.0" encoding="UTF-8"?>
<svg version="1.1" xmlns="http://www.w3.org/2000/svg" width="231" height="120">
<path d="M0 0 C0.66 0.33 1.32 0.66 2 1 C2 1.66 2 2.32 2 3 C2.61488281 2.84144531 3.22976563 2.68289062 3.86328125 2.51953125 C14.62425384 0.73720329 28.55786765 -0.0996175 38 6 C38.70640625 6.44730469 39.4128125 6.89460937 40.140625 7.35546875 C43.49982583 9.82196857 44.8134369 11.3964135 46.0625 15.4375 C44.57367098 20.42945611 41.64450488 21.95263573 37.3828125 24.71484375 C35 26 35 26 33 26 C33.99 27.65 34.98 29.3 36 31 C36.33 30.2575 36.66 29.515 37 28.75 C39.71928629 25.01098135 42.67441614 23.49516485 47 22 C53.01361061 21.15598448 56.10642446 22.80419557 61 26 C61.07089844 25.37609375 61.14179687 24.7521875 61.21484375 24.109375 C62 22 62 22 64.06640625 20.953125 C65.30197266 20.60507812 65.30197266 20.60507812 66.5625 20.25 C67.38878906 20.00765625 68.21507813 19.7653125 69.06640625 19.515625 C69.70449219 19.34546875 70.34257813 19.1753125 71 19 C71 20.65 71 22.3 71 24 C70.34 24 69.68 24 69 24 C68.34 29.28 67.68 34.56 67 40 C68.32 39.67 69.64 39.34 71 39 C70.896875 37.783125 70.79375 36.56625 70.6875 35.3125 C70.69368588 31.81129452 70.89512763 31.13880166 73.125 28.1875 C78.4153478 24.16223537 82.25694773 22.29020502 89 23 C94.95266272 24.95266272 94.95266272 24.95266272 97 27 C97 22.05 97 17.1 97 12 C100.3 10.68 103.6 9.36 107 8 C108.13727957 11.4118387 107.88315754 11.85288732 106.60546875 15.02734375 C104.75621361 20.22146676 104.45312921 25.08599691 104.3125 30.5625 C104.27833984 31.47580078 104.24417969 32.38910156 104.20898438 33.33007812 C104.12750642 35.55326229 104.05804262 37.77610197 104 40 C104.66 39.67 105.32 39.34 106 39 C106.33 31.41 106.66 23.82 107 16 C109.475 15.505 109.475 15.505 112 15 C115 18.625 115 18.625 115 22 C114.83628906 22.91007812 114.67257813 23.82015625 114.50390625 24.7578125 C113.97100123 28.1865812 113.90211924 31.40768548 113.9375 34.875 C113.94652344 36.02742188 113.95554687 37.17984375 113.96484375 38.3671875 C113.97644531 39.23601563 113.98804687 40.10484375 114 41 C114.66 41 115.32 41 116 41 C115.87625 39.824375 115.7525 38.64875 115.625 37.4375 C115.61688361 32.86797365 117.23182575 30.61114185 120.3671875 27.41015625 C124.46614412 23.87014826 128.55212617 23.6156053 133.7890625 23.74609375 C139.08605824 24.35440598 142.5412452 27.14215811 146 31 C146.99 29.515 146.99 29.515 148 28 C148.66 28 149.32 28 150 28 C150.25 33.625 150.25 33.625 148 37 C147.55569002 38.47109951 147.14096463 39.95133319 146.75 41.4375 C145.6326782 44.85617118 145.04487975 45.95825139 142.3125 48.5 C138.36405869 50.28797342 135.30760857 50.70292355 131 51 C131 51.66 131 52.32 131 53 C130.34 53 129.68 53 129 53 C129 54.98 129 56.96 129 59 C127.783125 59.0825 126.56625 59.165 125.3125 59.25 C121.17207475 59.7849576 118.89037884 60.85458773 116 64 C114.27379121 66.84374655 114.27379121 66.84374655 114 70 C115.74409751 72.8900216 115.74409751 72.8900216 118 75 C119.0209375 73.3603125 119.0209375 73.3603125 120.0625 71.6875 C122.8562914 67.82158136 125.33383404 66.32208036 130 65 C136.54273603 64.07195234 140.65685108 65.15293278 146 69 C147.9375 71.25 147.9375 71.25 149 73 C151.17728073 72.12355567 151.17728073 72.12355567 153 70 C153.81425055 64.70208407 152.89183643 59.23953901 152 54 C153.11375 54.0928125 153.11375 54.0928125 154.25 54.1875 C157.48254392 53.96709928 158.5559677 53.02264742 161 51 C161.66 51 162.32 51 163 51 C162.34 53.97 161.68 56.94 161 60 C163.97 60.495 163.97 60.495 167 61 C167 63.64 167 66.28 167 69 C164.69 69 162.38 69 160 69 C160.33 73.95 160.66 78.9 161 84 C161.66 83.67 162.32 83.34 163 83 C163.46463992 80.81153689 163.46463992 80.81153689 163.75 78.25 C164.40852387 74.6486976 164.94413607 72.42590319 167.75 70 C172.99887224 66.76992478 176.96430174 65.46784607 183.0390625 66.45703125 C186.96951533 67.54534389 189.87065159 69.62514107 192.4375 72.75 C193.32625323 76.30501294 192.59976545 79.40140727 192 83 C194.69243055 81.72602652 194.69243055 81.72602652 197 79 C197.70440437 75.38983096 197.55988304 71.85179216 197.4375 68.1875 C197.43169922 67.21490234 197.42589844 66.24230469 197.41992188 65.24023438 C197.32792779 59.80522381 196.78428035 55.1378675 195 50 C195.9075 49.71125 196.815 49.4225 197.75 49.125 C200.88825839 48.13777092 200.88825839 48.13777092 203.1875 46.8125 C205 46 205 46 208 47 C207.5155542 47.99652588 207.0311084 48.99305176 206.53198242 50.01977539 C204.85855048 53.93904018 204.57417186 57.40624119 204.48828125 61.68359375 C204.47033005 62.38396255 204.45237885 63.08433136 204.43388367 63.80592346 C204.38022445 66.01638989 204.34603068 68.22664612 204.3125 70.4375 C204.27928743 71.94729461 204.24479419 73.45706163 204.20898438 74.96679688 C204.12452605 78.64432933 204.0575045 82.32193591 204 86 C204.68126953 85.71560059 205.36253906 85.43120117 206.06445312 85.13818359 C206.96099609 84.77031738 207.85753906 84.40245117 208.78125 84.0234375 C210.1125293 83.47308838 210.1125293 83.47308838 211.47070312 82.91162109 C214.47278763 81.82959565 216.83864586 81.52579688 220 82 C222 84 222 84 222.265625 85.875 C222.26046875 86.57625 222.2553125 87.2775 222.25 88 C222.25773437 89.051875 222.25773437 89.051875 222.265625 90.125 C222 92 222 92 220 94 C217.875 93.625 217.875 93.625 216 93 C216 92.01 216 91.02 216 90 C213.38502059 90.44828218 211.07655944 90.96776444 208.625 92 C205.41819908 93.22163845 202.40977959 93.67832268 199 94 C198.34 93.67 197.68 93.34 197 93 C196.375 90.4375 196.375 90.4375 196 88 C195.071875 88.639375 194.14375 89.27875 193.1875 89.9375 C187.15529451 93.84069179 181.01093268 93.67429439 174 93 C171.66047298 91.91882052 170.05614997 90.59351623 168 89 C165.07243819 89.14280789 163.16398259 89.92620784 160.5 91.125 C158 92 158 92 153 91 C152.67 86.71 152.34 82.42 152 78 C151.01 78.495 151.01 78.495 150 79 C149.731875 80.0725 149.46375 81.145 149.1875 82.25 C147.8519888 86.46740378 146.37052073 88.20493403 143 91 C137.60080143 92.79973286 132.06442735 92.70112627 126.6875 90.875 C123.40588327 88.58549996 121.40788055 86.18690072 119 83 C118.82984375 83.55429688 118.6596875 84.10859375 118.484375 84.6796875 C116.48027444 90.67066895 116.48027444 90.67066895 113.8125 92.5 C113.214375 92.665 112.61625 92.83 112 93 C108.02203015 86.50264924 105.61960731 80.79805013 106 73 C105.01 73 104.02 73 103 73 C103 74.98 103 76.96 103 79 C101.824375 79.0928125 101.824375 79.0928125 100.625 79.1875 C97.80870146 79.72034804 97.80870146 79.72034804 96.8125 82.25 C96.544375 83.1575 96.27625 84.065 96 85 C95.33333333 86.66666667 94.66666667 88.33333333 94 90 C96.5654594 92.5654594 98.47686668 92.54046087 102 93 C101.67 94.65 101.34 96.3 101 98 C97.00406603 98.48929804 93.49031914 98.77755781 89.84375 96.875 C86.50883077 94.25080126 85.12123793 92.93526401 84.5625 88.625 C84.7790625 87.325625 84.7790625 87.325625 85 86 C84.0409375 85.5359375 84.0409375 85.5359375 83.0625 85.0625 C81 84 81 84 80 83 C79.85884839 80.32941149 79.95752893 77.67567762 80 75 C81.98 75.66 83.96 76.32 86 77 C85.896875 76.13375 85.79375 75.2675 85.6875 74.375 C86 71 86 71 88.6875 68.1875 C91.28984078 65.34471905 91.28984078 65.34471905 90.76953125 62.7265625 C89.50946794 58.77367353 88.2704608 55.68279988 85 53 C84.34 53 83.68 53 83 53 C83 54.32 83 55.64 83 57 C81.515 57.495 81.515 57.495 80 58 C78.5 56.875 78.5 56.875 77 55 C76.8125 51.9375 76.8125 51.9375 77 49 C77 48.34 77 47.68 77 47 C75.0399719 45.36323743 75.0399719 45.36323743 73 44 C72.18595703 44.433125 72.18595703 44.433125 71.35546875 44.875 C70.28232422 45.431875 70.28232422 45.431875 69.1875 46 C68.47980469 46.37125 67.77210937 46.7425 67.04296875 47.125 C65 48 65 48 62 48 C61.34 47.01 60.68 46.02 60 45 C58.96875 45.495 57.9375 45.99 56.875 46.5 C53.46171975 47.96777974 50.74441756 48.34831791 47 48 C46.01 47.505 46.01 47.505 45 47 C45 47.66 45 48.32 45 49 C39.19219286 50.10148066 36.17332943 50.32571178 31 47 C30.34 46.34 29.68 45.68 29 45 C26.67451993 44.30643577 24.34119555 43.63850788 22 43 C21 42 21 42 20.9375 38.9375 C20.958125 37.968125 20.97875 36.99875 21 36 C22.32 36 23.64 36 25 36 C24.505 32.04 24.505 32.04 24 28 C20.04 28 16.08 28 12 28 C11.896875 29.629375 11.79375 31.25875 11.6875 32.9375 C11.21424255 38.31036403 9.96502887 42.99473778 8 48 C11.26011642 47.30621489 12.79038253 46.54106009 15 44 C16 46 16 46 15.3125 48.9375 C13.90073513 52.23161803 13.10537567 53.31422464 10 55 C6.82608572 56.13935384 5.52360909 56.21193701 2.375 54.9375 C0 53 0 53 -1.4375 49.875 C-1.953125 48.92625 -2.46875 47.9775 -3 47 C-6.08961458 46.02525184 -6.08961458 46.02525184 -9 46 C-9 44.35 -9 42.7 -9 41 C-8.39671875 40.72027344 -7.7934375 40.44054688 -7.171875 40.15234375 C-1.41099767 37.26261335 1.61443924 35.07233648 4 29 C3.81171228 26.55519921 3.81171228 26.55519921 3 24 C2.99175757 22.49987797 3.01548886 20.99940788 3.0625 19.5 C3.14024059 14.45251496 3.14024059 14.45251496 1 10 C-1.67689748 8.96201934 -4.14584808 8.50638179 -7 8 C-7.68707555 5.50935112 -8 3.62113708 -8 1 C-5.26094655 -0.36952673 -3.02912668 -0.12621361 0 0 Z M8 9 C8.94905723 13.34008633 8.94905723 13.34008633 12.0234375 16.2421875 C12.79945312 16.45101563 13.57546875 16.65984375 14.375 16.875 C15.14585938 17.09929688 15.91671875 17.32359375 16.7109375 17.5546875 C19.26573603 18.12730622 19.26573603 18.12730622 23 18 C23.33 18.66 23.66 19.32 24 20 C26.97 18.68 29.94 17.36 33 16 C26.28810659 9.28810659 17.05762834 9.40598334 8 9 Z M44 34 C45.11854586 37.72614153 45.11854586 37.72614153 48 40 C52.40739038 40.51901701 55.86358041 40.75761306 59.625 38.25 C61.18468021 36.13727567 61.18468021 36.13727567 61 33.875 C59.64570101 31.33568939 58.74875187 30.8680269 56 30 C50.47875033 29.39768185 47.9912305 30.12971588 44 34 Z M81 33 C79.91975342 35.40110217 79.91975342 35.40110217 80 38 C81.56792034 40.09390001 82.50462051 40.89702786 85.0859375 41.43359375 C89.30591405 41.44079508 91.43056587 41.37187535 95.0625 39 C95.701875 38.34 96.34125 37.68 97 37 C96.66411682 34.48087612 96.42645046 33.32803881 94.375 31.75 C89.93630553 30.34830701 84.7805844 29.94645106 81 33 Z M125 37 C125.79117904 38.99983534 125.79117904 38.99983534 127 41 C127.99 41.33 128.98 41.66 130 42 C130 41.01 130 40.02 130 39 C130.66 39 131.32 39 132 39 C132.33 40.32 132.66 41.64 133 43 C136.43230448 42.73606499 136.43230448 42.73606499 140 42 C140.66 41.01 141.32 40.02 142 39 C140.68 38.67 139.36 38.34 138 38 C138.33 37.01 138.66 36.02 139 35 C138.67 34.01 138.34 33.02 138 32 C131.61498769 31.45889726 129.2202269 31.72471638 125 37 Z M97 44 C95.02 45.32 93.04 46.64 91 48 C91.39832031 48.47308594 91.79664062 48.94617187 92.20703125 49.43359375 C96.15710359 54.36397602 98.39036476 58.90032961 100 65 C101.98 65.33 103.96 65.66 106 66 C106.3403125 65.03578125 106.680625 64.0715625 107.03125 63.078125 C111.3690118 51.53001213 111.3690118 51.53001213 116.375 49.125 C117.57125 48.75375 118.7675 48.3825 120 48 C120 47.01 120 46.02 120 45 C119.154375 45.28875 118.30875 45.5775 117.4375 45.875 C113.97638959 47.00772704 110.50627443 48.01824316 107 49 C106.67 47.68 106.34 46.36 106 45 C105.401875 45.495 104.80375 45.99 104.1875 46.5 C102 48 102 48 99 48 C98.34 46.68 97.68 45.36 97 44 Z M100 72 C100 72.66 100 73.32 100 74 C100.99 73.67 101.98 73.34 103 73 C102.01 72.67 101.02 72.34 100 72 Z M128 77 C128.12177688 78.91466367 128.12177688 78.91466367 129 81 C131.71737795 83.17390236 133.61233156 83.94461879 137.0625 84.4375 C140.63988574 83.90469787 141.75828653 82.75903196 144 80 C143.34 79.67 142.68 79.34 142 79 C141.375 75.9375 141.375 75.9375 141 73 C135.11191606 72.60080787 132.37659318 72.62340682 128 77 Z M174 78 C177.63 78 181.26 78 185 78 C184.67 77.01 184.34 76.02 184 75 C179.06071112 74.6632303 178.21507278 74.83869541 174 78 Z M112 79 C113 81 113 81 113 81 Z M177 84 C179.60704898 86.60704898 181.47338241 86.23905333 185.02734375 86.265625 C187.31952326 86.10382514 187.31952326 86.10382514 190 84 C185.71 84 181.42 84 177 84 Z " fill="#F3F3F3" transform="translate(9,0)"/>
<path d="M0 0 C-0.4844458 0.99652588 -0.9688916 1.99305176 -1.46801758 3.01977539 C-3.14144952 6.93904018 -3.42582814 10.40624119 -3.51171875 14.68359375 C-3.53864555 15.73414696 -3.53864555 15.73414696 -3.56611633 16.80592346 C-3.61977555 19.01638989 -3.65396932 21.22664612 -3.6875 23.4375 C-3.72071257 24.94729461 -3.75520581 26.45706163 -3.79101562 27.96679688 C-3.87547395 31.64432933 -3.9424955 35.32193591 -4 39 C-3.31873047 38.71560059 -2.63746094 38.43120117 -1.93554688 38.13818359 C-1.03900391 37.77031738 -0.14246094 37.40245117 0.78125 37.0234375 C1.66876953 36.65653809 2.55628906 36.28963867 3.47070312 35.91162109 C6.47278763 34.82959565 8.83864586 34.52579688 12 35 C14 37 14 37 14.265625 38.875 C14.26046875 39.57625 14.2553125 40.2775 14.25 41 C14.25773437 42.051875 14.25773437 42.051875 14.265625 43.125 C14 45 14 45 12 47 C9.875 46.625 9.875 46.625 8 46 C8 45.01 8 44.02 8 43 C5.38502059 43.44828218 3.07655944 43.96776444 0.625 45 C-2.58180092 46.22163845 -5.59022041 46.67832268 -9 47 C-9.66 46.67 -10.32 46.34 -11 46 C-11.625 43.4375 -11.625 43.4375 -12 41 C-12.928125 41.639375 -13.85625 42.27875 -14.8125 42.9375 C-20.84470549 46.84069179 -26.98906732 46.67429439 -34 46 C-36.33952702 44.91882052 -37.94385003 43.59351623 -40 42 C-42.92756181 42.14280789 -44.83601741 42.92620784 -47.5 44.125 C-50 45 -50 45 -55 44 C-55.33 39.71 -55.66 35.42 -56 31 C-59.81753687 34.63897967 -59.81753687 34.63897967 -62 37.625 C-64.50891757 40.60433962 -66.46767493 41.77926305 -70.33203125 42.3359375 C-76.48956063 42.43290647 -80.0545859 41.75851471 -85 38 C-88.0022365 34.62248393 -88.98289063 32.97523435 -89.0625 28.4375 C-87.55816761 23.57054225 -85.10164334 21.22595862 -80.75 18.6875 C-75.29027177 17.32256794 -70.18823019 17.02529562 -65.125 19.75 C-62.41173894 21.70354796 -60.71628584 23.17317627 -59 26 C-56.82271927 25.12355567 -56.82271927 25.12355567 -55 23 C-54.18574945 17.70208407 -55.10816357 12.23953901 -56 7 C-55.2575 7.061875 -54.515 7.12375 -53.75 7.1875 C-50.51745608 6.96709928 -49.4440323 6.02264742 -47 4 C-46.34 4 -45.68 4 -45 4 C-45.66 6.97 -46.32 9.94 -47 13 C-45.02 13.33 -43.04 13.66 -41 14 C-41 16.64 -41 19.28 -41 22 C-43.31 22 -45.62 22 -48 22 C-47.505 29.425 -47.505 29.425 -47 37 C-46.34 36.67 -45.68 36.34 -45 36 C-44.53536008 33.81153689 -44.53536008 33.81153689 -44.25 31.25 C-43.59147613 27.6486976 -43.05586393 25.42590319 -40.25 23 C-35.00112776 19.76992478 -31.03569826 18.46784607 -24.9609375 19.45703125 C-21.03048467 20.54534389 -18.12934841 22.62514107 -15.5625 25.75 C-14.67374677 29.30501294 -15.40023455 32.40140727 -16 36 C-13.30756945 34.72602652 -13.30756945 34.72602652 -11 32 C-10.29559563 28.38983096 -10.44011696 24.85179216 -10.5625 21.1875 C-10.56830078 20.21490234 -10.57410156 19.24230469 -10.58007812 18.24023438 C-10.67207221 12.80522381 -11.21571965 8.1378675 -13 3 C-11.63875 2.566875 -11.63875 2.566875 -10.25 2.125 C-7.11174161 1.13777092 -7.11174161 1.13777092 -4.8125 -0.1875 C-3 -1 -3 -1 0 0 Z M-80 30 C-79.87822312 31.91466367 -79.87822312 31.91466367 -79 34 C-76.28262205 36.17390236 -74.38766844 36.94461879 -70.9375 37.4375 C-67.36011426 36.90469787 -66.24171347 35.75903196 -64 33 C-64.66 32.67 -65.32 32.34 -66 32 C-66.625 28.9375 -66.625 28.9375 -67 26 C-72.88808394 25.60080787 -75.62340682 25.62340682 -80 30 Z M-34 31 C-30.37 31 -26.74 31 -23 31 C-23.33 30.01 -23.66 29.02 -24 28 C-28.93928888 27.6632303 -29.78492722 27.83869541 -34 31 Z M-31 37 C-28.39295102 39.60704898 -26.52661759 39.23905333 -22.97265625 39.265625 C-20.68047674 39.10382514 -20.68047674 39.10382514 -18 37 C-22.29 37 -26.58 37 -31 37 Z " fill="#F0F0F0" transform="translate(217,47)"/>
<path d="M0 0 C0.66 0.33 1.32 0.66 2 1 C2 1.66 2 2.32 2 3 C2.61488281 2.84144531 3.22976563 2.68289062 3.86328125 2.51953125 C14.62425384 0.73720329 28.55786765 -0.0996175 38 6 C38.70640625 6.44730469 39.4128125 6.89460937 40.140625 7.35546875 C43.49982583 9.82196857 44.8134369 11.3964135 46.0625 15.4375 C44.57367098 20.42945611 41.64450488 21.95263573 37.3828125 24.71484375 C35 26 35 26 33 26 C33.66 26.99 34.32 27.98 35 29 C35.34679142 30.80276493 35.6330185 32.61770038 35.875 34.4375 C36.4612528 37.90921581 36.77432091 39.69157191 38.875 42.5625 C40.86653501 43.90971486 42.79003254 45.05287109 45 46 C39.06953159 47.33132964 36.20857988 46.75748347 31 44 C30.34 43.34 29.68 42.68 29 42 C26.68234271 41.28072705 24.34904126 40.6090107 22 40 C21.67 38.68 21.34 37.36 21 36 C22.32 36 23.64 36 25 36 C24.505 32.04 24.505 32.04 24 28 C20.04 28 16.08 28 12 28 C11.896875 29.629375 11.79375 31.25875 11.6875 32.9375 C11.21424255 38.31036403 9.96502887 42.99473778 8 48 C11.26011642 47.30621489 12.79038253 46.54106009 15 44 C16 46 16 46 15.3125 48.9375 C13.90073513 52.23161803 13.10537567 53.31422464 10 55 C6.82608572 56.13935384 5.52360909 56.21193701 2.375 54.9375 C0 53 0 53 -1.4375 49.875 C-1.953125 48.92625 -2.46875 47.9775 -3 47 C-6.08961458 46.02525184 -6.08961458 46.02525184 -9 46 C-9 44.35 -9 42.7 -9 41 C-8.39671875 40.72027344 -7.7934375 40.44054688 -7.171875 40.15234375 C-1.41099767 37.26261335 1.61443924 35.07233648 4 29 C3.81171228 26.55519921 3.81171228 26.55519921 3 24 C2.99175757 22.49987797 3.01548886 20.99940788 3.0625 19.5 C3.14024059 14.45251496 3.14024059 14.45251496 1 10 C-1.67689748 8.96201934 -4.14584808 8.50638179 -7 8 C-7.68707555 5.50935112 -8 3.62113708 -8 1 C-5.26094655 -0.36952673 -3.02912668 -0.12621361 0 0 Z M8 9 C8.94905723 13.34008633 8.94905723 13.34008633 12.0234375 16.2421875 C12.79945312 16.45101563 13.57546875 16.65984375 14.375 16.875 C15.14585938 17.09929688 15.91671875 17.32359375 16.7109375 17.5546875 C19.26573603 18.12730622 19.26573603 18.12730622 23 18 C23.33 18.66 23.66 19.32 24 20 C26.97 18.68 29.94 17.36 33 16 C26.28810659 9.28810659 17.05762834 9.40598334 8 9 Z " fill="#F7F7F7" transform="translate(9,0)"/>
<path d="M0 0 C1.13727957 3.4118387 0.88315754 3.85288732 -0.39453125 7.02734375 C-2.24378639 12.22146676 -2.54687079 17.08599691 -2.6875 22.5625 C-2.72166016 23.47580078 -2.75582031 24.38910156 -2.79101562 25.33007812 C-2.87249358 27.55326229 -2.94195738 29.77610197 -3 32 C-2.01 31.505 -2.01 31.505 -1 31 C-0.67 23.41 -0.34 15.82 0 8 C2.475 7.505 2.475 7.505 5 7 C8 10.625 8 10.625 8 14 C7.83628906 14.91007812 7.67257813 15.82015625 7.50390625 16.7578125 C6.97100123 20.1865812 6.90211924 23.40768548 6.9375 26.875 C6.94652344 28.02742188 6.95554687 29.17984375 6.96484375 30.3671875 C6.97644531 31.23601563 6.98804687 32.10484375 7 33 C7.99 32.67 8.98 32.34 10 32 C10.33 32.99 10.66 33.98 11 35 C6.65628407 37.48212339 3.92301656 38 -1 38 C-2.34275169 38.98731742 -3.67732273 39.98594743 -5 41 C-7.25 40.6875 -7.25 40.6875 -9 40 C-9.495 37.03 -9.495 37.03 -10 34 C-11.05574219 34.72896484 -11.05574219 34.72896484 -12.1328125 35.47265625 C-16.89806062 38.01109224 -21.73047323 37.68672024 -27 37 C-29.125 35.9921875 -29.125 35.9921875 -30.875 34.8125 C-31.90625 34.214375 -32.9375 33.61625 -34 33 C-37.16666667 34.16666667 -37.16666667 34.16666667 -40 36 C-42.875 36.1875 -42.875 36.1875 -45 36 C-45.33 35.01 -45.66 34.02 -46 33 C-46.639375 33.474375 -47.27875 33.94875 -47.9375 34.4375 C-52.41937277 36.72416978 -57.05915401 37.92081283 -61.99609375 36.375 C-66.26526815 34.17155515 -68.8978292 31.3795225 -71 27 C-71.08312839 22.92670904 -70.33455326 21.40889843 -67.75 18.25 C-63.98191361 15.16702023 -61.45062172 14.16118019 -56.625 13.625 C-52.08269916 14.09489319 -49.79333144 15.52272233 -46 18 C-45.92910156 17.37609375 -45.85820313 16.7521875 -45.78515625 16.109375 C-45 14 -45 14 -42.93359375 12.953125 C-42.10988281 12.72109375 -41.28617188 12.4890625 -40.4375 12.25 C-39.61121094 12.00765625 -38.78492188 11.7653125 -37.93359375 11.515625 C-36.97646484 11.26039062 -36.97646484 11.26039062 -36 11 C-36 12.65 -36 14.3 -36 16 C-36.66 16 -37.32 16 -38 16 C-38.66 21.28 -39.32 26.56 -40 32 C-38.68 31.67 -37.36 31.34 -36 31 C-36.1546875 29.1746875 -36.1546875 29.1746875 -36.3125 27.3125 C-36.30631412 23.81129452 -36.10487237 23.13880166 -33.875 20.1875 C-28.5846522 16.16223537 -24.74305227 14.29020502 -18 15 C-12.04733728 16.95266272 -12.04733728 16.95266272 -10 19 C-10 14.05 -10 9.1 -10 4 C-6.7 2.68 -3.4 1.36 0 0 Z M-63 26 C-61.88145414 29.72614153 -61.88145414 29.72614153 -59 32 C-54.59260962 32.51901701 -51.13641959 32.75761306 -47.375 30.25 C-45.81531979 28.13727567 -45.81531979 28.13727567 -46 25.875 C-47.35429899 23.33568939 -48.25124813 22.8680269 -51 22 C-56.52124967 21.39768185 -59.0087695 22.12971588 -63 26 Z M-26 25 C-27.08024658 27.40110217 -27.08024658 27.40110217 -27 30 C-25.43207966 32.09390001 -24.49537949 32.89702786 -21.9140625 33.43359375 C-17.69408595 33.44079508 -15.56943413 33.37187535 -11.9375 31 C-11.298125 30.34 -10.65875 29.68 -10 29 C-10.33588318 26.48087612 -10.57354954 25.32803881 -12.625 23.75 C-17.06369447 22.34830701 -22.2194156 21.94645106 -26 25 Z " fill="#EBEBEB" transform="translate(116,8)"/>
<path d="M0 0 C0.515625 0.7425 1.03125 1.485 1.5625 2.25 C4.34805978 5.39268283 7.00776542 7.67708305 11 9 C16.62150475 9.32318756 21.1564472 7.85645421 26 5 C26 6.32 26 7.64 26 9 C26.61488281 8.79503906 27.22976562 8.59007812 27.86328125 8.37890625 C31.2421875 7.25260417 34.62109375 6.12630208 38 5 C39.2065625 5.9590625 39.2065625 5.9590625 40.4375 6.9375 C45.04120046 10.26047176 50.59101824 9.64287078 56 9 C58.36030625 8.23508594 59.92093921 7.38604053 62 6 C61.65120368 9.25543229 60.97866739 10.01873107 58.4375 12.25 C57.633125 12.8275 56.82875 13.405 56 14 C56.40992187 14.44730469 56.81984375 14.89460938 57.2421875 15.35546875 C61.69768429 20.35457878 64.39692538 24.05380581 64 31 C62.02 31 60.04 31 58 31 C57.67 31.99 57.34 32.98 57 34 C58.98 34 60.96 34 63 34 C63.495 37.96 63.495 37.96 64 42 C64.99 41.67 65.98 41.34 67 41 C67 41.99 67 42.98 67 44 C65.824375 44.0928125 65.824375 44.0928125 64.625 44.1875 C61.80870146 44.72034804 61.80870146 44.72034804 60.8125 47.25 C60.544375 48.1575 60.27625 49.065 60 50 C59.33333333 51.66666667 58.66666667 53.33333333 58 55 C60.5654594 57.5654594 62.47686668 57.54046087 66 58 C65.67 59.65 65.34 61.3 65 63 C61.00406603 63.48929804 57.49031914 63.77755781 53.84375 61.875 C50.50883077 59.25080126 49.12123793 57.93526401 48.5625 53.625 C48.706875 52.75875 48.85125 51.8925 49 51 C48.360625 50.690625 47.72125 50.38125 47.0625 50.0625 C45 49 45 49 44 48 C43.85884839 45.32941149 43.95752893 42.67567762 44 40 C45.98 40.66 47.96 41.32 50 42 C49.896875 41.13375 49.79375 40.2675 49.6875 39.375 C50 36 50 36 52.6875 33.1875 C55.28984078 30.34471905 55.28984078 30.34471905 54.76953125 27.7265625 C53.50946794 23.77367353 52.2704608 20.68279988 49 18 C48.34 18 47.68 18 47 18 C47 19.32 47 20.64 47 22 C46.01 22.33 45.02 22.66 44 23 C42.5 21.875 42.5 21.875 41 20 C40.8125 16.9375 40.8125 16.9375 41 14 C41 13.34 41 12.68 41 12 C39.0399719 10.36323743 39.0399719 10.36323743 37 9 C36.18595703 9.433125 36.18595703 9.433125 35.35546875 9.875 C34.64003906 10.24625 33.92460938 10.6175 33.1875 11 C32.47980469 11.37125 31.77210937 11.7425 31.04296875 12.125 C29 13 29 13 26 13 C25.34 12.01 24.68 11.02 24 10 C22.96875 10.495 21.9375 10.99 20.875 11.5 C17.46171975 12.96777974 14.74441756 13.34831791 11 13 C10.34 12.67 9.68 12.34 9 12 C9 12.66 9 13.32 9 14 C3.19219286 15.10148066 0.17332943 15.32571178 -5 12 C-5.66 11.34 -6.32 10.68 -7 10 C-9.31765729 9.28072705 -11.65095874 8.6090107 -14 8 C-14.33 6.68 -14.66 5.36 -15 4 C-13.58034858 4.42771549 -12.1643776 4.86765543 -10.75 5.3125 C-9.96109375 5.55613281 -9.1721875 5.79976562 -8.359375 6.05078125 C-6 7 -6 7 -4.03125 8.5625 C-1.52419951 10.33672035 0.20932489 10.48745559 3.25 10.6875 C4.58804688 10.78611328 4.58804688 10.78611328 5.953125 10.88671875 C6.62859375 10.92410156 7.3040625 10.96148437 8 11 C7.236875 10.5875 6.47375 10.175 5.6875 9.75 C3.00822496 8.00535579 1.58426846 6.75162417 0 4 C0 2.68 0 1.36 0 0 Z " fill="#EAEAEA" transform="translate(45,35)"/>
<path d="M0 0 C-0.66 2.97 -1.32 5.94 -2 9 C-0.02 9.33 1.96 9.66 4 10 C4 12.64 4 15.28 4 18 C1.69 18 -0.62 18 -3 18 C-2.97679687 19.19238281 -2.95359375 20.38476562 -2.9296875 21.61328125 C-2.91092822 23.17968124 -2.89272819 24.746088 -2.875 26.3125 C-2.85824219 27.09818359 -2.84148437 27.88386719 -2.82421875 28.69335938 C-2.81455078 29.8293457 -2.81455078 29.8293457 -2.8046875 30.98828125 C-2.78897705 32.03302612 -2.78897705 32.03302612 -2.77294922 33.09887695 C-3 35 -3 35 -5 38 C-6.65 37.67 -8.3 37.34 -10 37 C-10.33 33.7 -10.66 30.4 -11 27 C-13.19421711 29.11585221 -15.14927218 31.19591974 -17 33.625 C-19.50891757 36.60433962 -21.46767493 37.77926305 -25.33203125 38.3359375 C-31.48956063 38.43290647 -35.0545859 37.75851471 -40 34 C-43.0022365 30.62248393 -43.98289063 28.97523435 -44.0625 24.4375 C-42.55816761 19.57054225 -40.10164334 17.22595862 -35.75 14.6875 C-30.29027177 13.32256794 -25.18823019 13.02529562 -20.125 15.75 C-17.41173894 17.70354796 -15.71628584 19.17317627 -14 22 C-11.82271927 21.12355567 -11.82271927 21.12355567 -10 19 C-9.18574945 13.70208407 -10.10816357 8.23953901 -11 3 C-9.88625 3.0928125 -9.88625 3.0928125 -8.75 3.1875 C-5.00949297 2.93246543 -3.49394693 0 0 0 Z M-35 26 C-34.87822312 27.91466367 -34.87822312 27.91466367 -34 30 C-31.28262205 32.17390236 -29.38766844 32.94461879 -25.9375 33.4375 C-22.36011426 32.90469787 -21.24171347 31.75903196 -19 29 C-19.66 28.67 -20.32 28.34 -21 28 C-21.625 24.9375 -21.625 24.9375 -22 22 C-27.88808394 21.60080787 -30.62340682 21.62340682 -35 26 Z " fill="#F5F5F5" transform="translate(172,51)"/>
<path d="M0 0 C3.3 0.33 6.6 0.66 10 1 C11.65 5.29 13.3 9.58 15 14 C18.3 14.33 21.6 14.66 25 15 C25 15.33 25 15.66 25 16 C23.02 16.33 21.04 16.66 19 17 C22.03516925 20.03516925 25.31828054 19.34079233 29.46875 19.4609375 C32 20 32 20 33.40625 21.8515625 C34 24 34 24 33 27 C32.505 25.02 32.505 25.02 32 23 C28.04 23 24.08 23 20 23 C19.896875 24.629375 19.79375 26.25875 19.6875 27.9375 C19.21424255 33.31036403 17.96502887 37.99473778 16 43 C19.26011642 42.30621489 20.79038253 41.54106009 23 39 C24 41 24 41 23.3125 43.9375 C21.90073513 47.23161803 21.10537567 48.31422464 18 50 C14.82608572 51.13935384 13.52360909 51.21193701 10.375 49.9375 C8 48 8 48 6.5625 44.875 C6.046875 43.92625 5.53125 42.9775 5 42 C1.91038542 41.02525184 1.91038542 41.02525184 -1 41 C-1 39.35 -1 37.7 -1 36 C-0.39671875 35.72027344 0.2065625 35.44054688 0.828125 35.15234375 C6.58900233 32.26261335 9.61443924 30.07233648 12 24 C11.81171228 21.55519921 11.81171228 21.55519921 11 19 C10.99175757 17.49987797 11.01548886 15.99940788 11.0625 14.5 C11.14024059 9.45251496 11.14024059 9.45251496 9 5 C6.92651593 4.29734323 4.94263352 3.87576121 2.77734375 3.5546875 C2.19082031 3.37164062 1.60429688 3.18859375 1 3 C0.67 2.01 0.34 1.02 0 0 Z " fill="#EBEBEB" transform="translate(1,5)"/>
<path d="M0 0 C-0.66 2.97 -1.32 5.94 -2 9 C0.97 9.495 0.97 9.495 4 10 C4 12.64 4 15.28 4 18 C1.69 18 -0.62 18 -3 18 C-2.97679687 19.19238281 -2.95359375 20.38476562 -2.9296875 21.61328125 C-2.91092822 23.17968124 -2.89272819 24.746088 -2.875 26.3125 C-2.85824219 27.09818359 -2.84148437 27.88386719 -2.82421875 28.69335938 C-2.81777344 29.45068359 -2.81132812 30.20800781 -2.8046875 30.98828125 C-2.79421387 31.68477783 -2.78374023 32.38127441 -2.77294922 33.09887695 C-3 35 -3 35 -5 38 C-6.65 37.67 -8.3 37.34 -10 37 C-10.33 33.7 -10.66 30.4 -11 27 C-14.3 27.66 -17.6 28.32 -21 29 C-21.33 27.68 -21.66 26.36 -22 25 C-20.8553125 25.0928125 -20.8553125 25.0928125 -19.6875 25.1875 C-17.0045298 25.26512635 -17.0045298 25.26512635 -15.4375 23.6875 C-14.963125 23.130625 -14.48875 22.57375 -14 22 C-13.278125 21.62875 -12.55625 21.2575 -11.8125 20.875 C-9.6047702 18.59114159 -9.71898174 17.84570433 -9.6875 14.75 C-9.8627878 10.78330192 -10.33409118 6.9122143 -11 3 C-9.88625 3.0928125 -9.88625 3.0928125 -8.75 3.1875 C-5.00949297 2.93246543 -3.49394693 0 0 0 Z " fill="#D4D4D4" transform="translate(172,51)"/>
<path d="M0 0 C0.515625 0.7425 1.03125 1.485 1.5625 2.25 C4.34805978 5.39268283 7.00776542 7.67708305 11 9 C16.62150475 9.32318756 21.1564472 7.85645421 26 5 C26 6.32 26 7.64 26 9 C26.61488281 8.79503906 27.22976562 8.59007812 27.86328125 8.37890625 C31.2421875 7.25260417 34.62109375 6.12630208 38 5 C39.2065625 5.9590625 39.2065625 5.9590625 40.4375 6.9375 C45.04120046 10.26047176 50.59101824 9.64287078 56 9 C58.36030625 8.23508594 59.92093921 7.38604053 62 6 C61.65557106 8.49710982 61.15296001 9.82154665 59.5 11.75 C55.74442761 13.62778619 52.12353394 13.23789619 48 13 C48.763125 13.70125 49.52625 14.4025 50.3125 15.125 C53.92868391 18.99347582 55.89051783 22.02932102 56.1875 27.375 C56.0946875 28.674375 56.0946875 28.674375 56 30 C54.81994066 27.63988133 53.68863179 25.29234498 52.625 22.875 C50.95267372 19.91626889 50.14120461 19.083174 47 18 C47 19.32 47 20.64 47 22 C46.01 22.33 45.02 22.66 44 23 C42.5 21.875 42.5 21.875 41 20 C40.8125 16.9375 40.8125 16.9375 41 14 C41 13.34 41 12.68 41 12 C39.0399719 10.36323743 39.0399719 10.36323743 37 9 C36.18595703 9.433125 36.18595703 9.433125 35.35546875 9.875 C34.64003906 10.24625 33.92460938 10.6175 33.1875 11 C32.47980469 11.37125 31.77210937 11.7425 31.04296875 12.125 C29 13 29 13 26 13 C25.34 12.01 24.68 11.02 24 10 C22.96875 10.495 21.9375 10.99 20.875 11.5 C17.46171975 12.96777974 14.74441756 13.34831791 11 13 C10.34 12.67 9.68 12.34 9 12 C9 12.66 9 13.32 9 14 C3.19219286 15.10148066 0.17332943 15.32571178 -5 12 C-5.66 11.34 -6.32 10.68 -7 10 C-9.31765729 9.28072705 -11.65095874 8.6090107 -14 8 C-14.33 6.68 -14.66 5.36 -15 4 C-13.58034858 4.42771549 -12.1643776 4.86765543 -10.75 5.3125 C-9.96109375 5.55613281 -9.1721875 5.79976562 -8.359375 6.05078125 C-6 7 -6 7 -4.03125 8.5625 C-1.52419951 10.33672035 0.20932489 10.48745559 3.25 10.6875 C4.58804688 10.78611328 4.58804688 10.78611328 5.953125 10.88671875 C6.62859375 10.92410156 7.3040625 10.96148437 8 11 C7.236875 10.5875 6.47375 10.175 5.6875 9.75 C3.00822496 8.00535579 1.58426846 6.75162417 0 4 C0 2.68 0 1.36 0 0 Z " fill="#040404" transform="translate(45,35)"/>
<path d="M0 0 C0 0.99 0 1.98 0 3 C-2.1171875 4.82421875 -2.1171875 4.82421875 -4.875 6.6875 C-5.77992187 7.31011719 -6.68484375 7.93273437 -7.6171875 8.57421875 C-10 10 -10 10 -12 10 C-11.01 11.485 -11.01 11.485 -10 13 C-9.65320858 14.80276493 -9.3669815 16.61770038 -9.125 18.4375 C-8.5387472 21.90921581 -8.22567909 23.69157191 -6.125 26.5625 C-4.13346499 27.90971486 -2.20996746 29.05287109 0 30 C-5.93046841 31.33132964 -8.79142012 30.75748347 -14 28 C-14.66 27.34 -15.32 26.68 -16 26 C-18.31765729 25.28072705 -20.65095874 24.6090107 -23 24 C-23.33 22.68 -23.66 21.36 -24 20 C-22.68 20 -21.36 20 -20 20 C-19.91803882 15.81998005 -20.10554296 12.07787895 -21 8 C-20.21496094 7.84144531 -19.42992187 7.68289062 -18.62109375 7.51953125 C-13.00557901 6.27240466 -4.74356924 0 0 0 Z " fill="#F1F1F1" transform="translate(54,16)"/>
<path d="M0 0 C0.495 0.99 0.495 0.99 1 2 C-3.27555907 6.65281428 -6.6165303 9.64611669 -13.0625 10.3203125 C-19.9313605 10.5544782 -23.62135083 10.1684531 -29 6 C-31.92756181 6.14280789 -33.83601741 6.92620784 -36.5 8.125 C-39.43439472 9.15203815 -41.05158101 8.84240543 -44 8 C-43.67 7.01 -43.34 6.02 -43 5 C-41.96875 4.896875 -40.9375 4.79375 -39.875 4.6875 C-36.04916055 4.00872203 -33.36629975 2.88841205 -30 1 C-29.236875 1.639375 -28.47375 2.27875 -27.6875 2.9375 C-22.62224669 6.82478743 -17.15760383 6.74467771 -11 6 C-7.19505181 4.5852743 -2.91985261 2.91985261 0 0 Z " fill="#040404" transform="translate(206,83)"/>
<path d="M0 0 C3.3 0.33 6.6 0.66 10 1 C11.65 5.29 13.3 9.58 15 14 C18.3 14.33 21.6 14.66 25 15 C25 15.33 25 15.66 25 16 C23.02 16.33 21.04 16.66 19 17 C22.03516925 20.03516925 25.31828054 19.34079233 29.46875 19.4609375 C32 20 32 20 33.40625 21.8515625 C34 24 34 24 33 27 C32.505 25.02 32.505 25.02 32 23 C28.04 23 24.08 23 20 23 C19.67 22.01 19.34 21.02 19 20 C17.865625 20.020625 16.73125 20.04125 15.5625 20.0625 C12 20 12 20 11 19 C10.97951095 17.58332831 11.00858732 16.16579373 11.0625 14.75 C11.1637023 9.57023839 11.1637023 9.57023839 9 5 C6.92651593 4.29734323 4.94263352 3.87576121 2.77734375 3.5546875 C2.19082031 3.37164062 1.60429688 3.18859375 1 3 C0.67 2.01 0.34 1.02 0 0 Z " fill="#8B8B8B" transform="translate(1,5)"/>
<path d="M0 0 C0.33 0.99 0.66 1.98 1 3 C-1.28431738 5.35800504 -3.0081024 6.88720897 -6.3359375 7.265625 C-8.56920205 7.251535 -10.77382441 7.17460201 -13 7 C-12.236875 7.70125 -11.47375 8.4025 -10.6875 9.125 C-7.07131609 12.99347582 -5.10948217 16.02932102 -4.8125 21.375 C-4.874375 22.24125 -4.93625 23.1075 -5 24 C-6.18005934 21.63988133 -7.31136821 19.29234498 -8.375 16.875 C-10.04732628 13.91626889 -10.85879539 13.083174 -14 12 C-14 13.32 -14 14.64 -14 16 C-14.99 16.33 -15.98 16.66 -17 17 C-18.5 15.875 -18.5 15.875 -20 14 C-20.63793103 8.89655172 -20.63793103 8.89655172 -18.84375 6.375 C-16.32925327 4.4997821 -14.22268748 4.37079551 -11.125 4 C-6.6588881 3.46272338 -3.73691283 2.53723971 0 0 Z " fill="#9F9F9F" transform="translate(106,41)"/>
<path d="M0 0 C4.54544293 0.70290355 6.66601887 3.53221311 9.4296875 6.99609375 C11.82339307 10.41844577 12.875 12.8942372 12.875 17.0625 C8.915 17.5575 8.915 17.5575 4.875 18.0625 C4.4728125 16.2371875 4.4728125 16.2371875 4.0625 14.375 C3.18935043 10.82586686 1.86910785 8.14430304 -0.125 5.0625 C-0.125 4.4025 -0.125 3.7425 -0.125 3.0625 C-1.445 2.4025 -2.765 1.7425 -4.125 1.0625 C-3.125 0.0625 -3.125 0.0625 0 0 Z " fill="#F9F9F9" transform="translate(96.125,46.9375)"/>
<path d="M0 0 C0.33 0.99 0.66 1.98 1 3 C0.01 4.485 0.01 4.485 -1 6 C-1.44430998 7.47109951 -1.85903537 8.95133319 -2.25 10.4375 C-3.3673218 13.85617118 -3.95512025 14.95825139 -6.6875 17.5 C-10.63594131 19.28797342 -13.69239143 19.70292355 -18 20 C-18 20.66 -18 21.32 -18 22 C-18.99 22.33 -19.98 22.66 -21 23 C-21.33 22.01 -21.66 21.02 -22 20 C-18.93861125 17.03736573 -16.55597994 15.74757887 -12.4375 15 C-8.4933461 14.24529501 -6.36012248 13.44184528 -4 10 C-3.20318682 7.35815459 -3.20318682 7.35815459 -3 5 C-3.391875 5.515625 -3.78375 6.03125 -4.1875 6.5625 C-4.785625 7.036875 -5.38375 7.51125 -6 8 C-8.6875 7.6875 -8.6875 7.6875 -11 7 C-10.67 6.01 -10.34 5.02 -10 4 C-6.97265625 3.75585938 -6.97265625 3.75585938 -3.9453125 3.51171875 C-1.60480784 3.12606964 -1.60480784 3.12606964 0 0 Z " fill="#080808" transform="translate(158,31)"/>
<path d="M0 0 C0.515625 0.7425 1.03125 1.485 1.5625 2.25 C5.04713973 6.18138841 8.28289451 8.57370294 13.46484375 9.38671875 C19.13952488 9.63418605 22.60243406 8.86127741 27 5 C28.83300909 2.89424357 28.83300909 2.89424357 30 1 C29.72301826 4.97007156 29.23315777 6.72389212 26.625 9.8125 C21.87670067 13.76941611 16.92218519 13.49968438 11 13 C5.74448821 11.2151092 3.09315678 8.45778477 0 4 C0 2.68 0 1.36 0 0 Z " fill="#040404" transform="translate(128,79)"/>
<path d="M0 0 C1.2065625 0.0309375 1.2065625 0.0309375 2.4375 0.0625 C2.7675 1.7125 3.0975 3.3625 3.4375 5.0625 C4.0975 5.0625 4.7575 5.0625 5.4375 5.0625 C5.7675 7.3725 6.0975 9.6825 6.4375 12.0625 C4.79175434 12.08938151 3.14588587 12.10884123 1.5 12.125 C0.58347656 12.13660156 -0.33304687 12.14820312 -1.27734375 12.16015625 C-3.5625 12.0625 -3.5625 12.0625 -4.5625 11.0625 C-4.49871032 9.39237017 -4.36221885 7.72469015 -4.1875 6.0625 C-4.09726563 5.155 -4.00703125 4.2475 -3.9140625 3.3125 C-3.41523782 0.12002207 -3.27642442 0.07991279 0 0 Z " fill="#B7B7B7" transform="translate(89.5625,107.9375)"/>
<path d="M0 0 C9.11681516 -0.56717514 19.96880138 0.06023689 27.875 5.0625 C28.57625 5.701875 29.2775 6.34125 30 7 C30 7.66 30 8.32 30 9 C26.86304192 8.49403902 24.02964696 7.65857294 21.0625 6.5625 C15.79917598 4.72211474 10.46692433 4.19722194 4.94140625 3.625 C2 3 2 3 0 0 Z " fill="#050505" transform="translate(14,6)"/>
<path d="M0 0 C4 1 4 1 6 4 C6.33 2.68 6.66 1.36 7 0 C7.66 0 8.32 0 9 0 C9 3.96 9 7.92 9 12 C8.01 12 7.02 12 6 12 C5.34 11.01 4.68 10.02 4 9 C3.67 9.99 3.34 10.98 3 12 C2.01 12 1.02 12 0 12 C0 8.04 0 4.08 0 0 Z " fill="#F3F3F3" transform="translate(216,108)"/>
<path d="M0 0 C3 0.25 3 0.25 5 2.25 C5.265625 4.125 5.265625 4.125 5.25 6.25 C5.25515625 6.95125 5.2603125 7.6525 5.265625 8.375 C5 10.25 5 10.25 3 12.25 C0 12.5 0 12.5 -3 12.25 C-5 10.25 -5 10.25 -5.265625 8.375 C-5.26046875 7.67375 -5.2553125 6.9725 -5.25 6.25 C-5.25515625 5.54875 -5.2603125 4.8475 -5.265625 4.125 C-4.77431879 0.65695617 -3.28862917 0.27405243 0 0 Z M-1 3.25 C-1.33 4.9 -1.66 6.55 -2 8.25 C-0.68 8.25 0.64 8.25 2 8.25 C2 6.93 2 5.61 2 4.25 C1.01 3.92 0.02 3.59 -1 3.25 Z " fill="#595959" transform="translate(207,107.75)"/>
<path d="M0 0 C3 0.25 3 0.25 5 2.25 C5.265625 4.125 5.265625 4.125 5.25 6.25 C5.25515625 6.95125 5.2603125 7.6525 5.265625 8.375 C5 10.25 5 10.25 3 12.25 C0 12.5 0 12.5 -3 12.25 C-5 10.25 -5 10.25 -5.265625 8.375 C-5.26046875 7.67375 -5.2553125 6.9725 -5.25 6.25 C-5.25515625 5.54875 -5.2603125 4.8475 -5.265625 4.125 C-4.77431879 0.65695617 -3.28862917 0.27405243 0 0 Z M-1 3.25 C-1.66 4.57 -2.32 5.89 -3 7.25 C-1.02 8.24 -1.02 8.24 1 9.25 C1.66 7.93 2.32 6.61 3 5.25 C1.68 4.59 0.36 3.93 -1 3.25 Z " fill="#525252" transform="translate(128,107.75)"/>
<path d="M0 0 C3 0.25 3 0.25 5 2.25 C5.265625 4.125 5.265625 4.125 5.25 6.25 C5.25515625 6.95125 5.2603125 7.6525 5.265625 8.375 C5 10.25 5 10.25 3 12.25 C0 12.5 0 12.5 -3 12.25 C-5 10.25 -5 10.25 -5.265625 8.375 C-5.26046875 7.67375 -5.2553125 6.9725 -5.25 6.25 C-5.25515625 5.54875 -5.2603125 4.8475 -5.265625 4.125 C-4.77431879 0.65695617 -3.28862917 0.27405243 0 0 Z M-1 3.25 C-1.66 4.57 -2.32 5.89 -3 7.25 C-1.02 8.24 -1.02 8.24 1 9.25 C1.66 7.93 2.32 6.61 3 5.25 C1.68 4.59 0.36 3.93 -1 3.25 Z " fill="#525252" transform="translate(42,107.75)"/>
<path d="M0 0 C4 1 4 1 6 4 C6.33 2.68 6.66 1.36 7 0 C7.66 0 8.32 0 9 0 C9 3.96 9 7.92 9 12 C5 11 5 11 3 8 C2.67 9.32 2.34 10.64 2 12 C1.34 12 0.68 12 0 12 C0 8.04 0 4.08 0 0 Z " fill="#F1F1F1" transform="translate(172,108)"/>
<path d="M0 0 C4 1 4 1 6 4 C6.33 2.68 6.66 1.36 7 0 C7.66 0 8.32 0 9 0 C9 3.96 9 7.92 9 12 C5 11 5 11 3 8 C2.67 9.32 2.34 10.64 2 12 C1.34 12 0.68 12 0 12 C0 8.04 0 4.08 0 0 Z " fill="#F1F1F1" transform="translate(137,108)"/>
<path d="M0 0 C2.375 -0.125 2.375 -0.125 5 0 C7 2 7 2 8 4.5625 C8.74870114 7.14841441 8.74870114 7.14841441 11 8 C16.02618483 8.3793347 18.89888036 7.98263247 23 5 C22.63327178 7.65877957 22.20911362 8.79835472 20.25 10.6875 C17.67823978 12.18769346 15.98246849 12.85451373 13 13 C9.34141329 11.51914347 8.22713187 10.49376493 6.5625 6.875 C6.046875 5.92625 5.53125 4.9775 5 4 C1.91038542 3.02525184 1.91038542 3.02525184 -1 3 C-0.67 2.01 -0.34 1.02 0 0 Z " fill="#040404" transform="translate(1,43)"/>
<path d="M0 0 C1.4540625 0.0309375 1.4540625 0.0309375 2.9375 0.0625 C2.916875 0.784375 2.89625 1.50625 2.875 2.25 C2.85161357 5.06108823 2.85161357 5.06108823 3.5 7.75 C3.9375 10.0625 3.9375 10.0625 2.9375 12.0625 C0.6275 12.0625 -1.6825 12.0625 -4.0625 12.0625 C-4.0625 10.7425 -4.0625 9.4225 -4.0625 8.0625 C-3.0725 8.0625 -2.0825 8.0625 -1.0625 8.0625 C-2.0525 7.4025 -3.0425 6.7425 -4.0625 6.0625 C-4.3125 3.5 -4.3125 3.5 -4.0625 1.0625 C-3.0625 0.0625 -3.0625 0.0625 0 0 Z " fill="#9C9C9C" transform="translate(30.0625,107.9375)"/>
<path d="M0 0 C1.98 0 3.96 0 6 0 C7.73956658 1.73956658 7.37190386 4.1936622 7.5625 6.5625 C7.64628906 7.57441406 7.73007812 8.58632812 7.81640625 9.62890625 C7.87699219 10.41136719 7.93757813 11.19382812 8 12 C6.0625 11.625 6.0625 11.625 4 11 C3.67 10.34 3.34 9.68 3 9 C2.67 9.99 2.34 10.98 2 12 C1.34 12 0.68 12 0 12 C0 8.04 0 4.08 0 0 Z M2 3 C2 3.66 2 4.32 2 5 C2.66 5 3.32 5 4 5 C4 4.34 4 3.68 4 3 C3.34 3 2.68 3 2 3 Z " fill="#E7E7E7" transform="translate(51,108)"/>
<path d="M0 0 C1.98 0 3.96 0 6 0 C7.89688882 1.89688882 7 5.46151915 7 8 C7.42854995 10.31036915 7.42854995 10.31036915 8 12 C6.0625 11.625 6.0625 11.625 4 11 C3.67 10.34 3.34 9.68 3 9 C2.67 9.99 2.34 10.98 2 12 C1.34 12 0.68 12 0 12 C0 8.04 0 4.08 0 0 Z M2 3 C2 3.66 2 4.32 2 5 C2.66 5 3.32 5 4 5 C4 4.34 4 3.68 4 3 C3.34 3 2.68 3 2 3 Z " fill="#CACACA" transform="translate(5,108)"/>
<path d="M0 0 C-1 3 -1 3 -3.4765625 4.3515625 C-14.36341901 8.75493126 -14.36341901 8.75493126 -20 9 C-20.66 8.67 -21.32 8.34 -22 8 C-22 7.01 -22 6.02 -22 5 C-21.29875 4.89042969 -20.5975 4.78085938 -19.875 4.66796875 C-15.25658058 3.8961405 -10.86851946 3.09469703 -6.5 1.375 C-3 0 -3 0 0 0 Z " fill="#060606" transform="translate(228,85)"/>
<path d="M0 0 C0.99 0 1.98 0 3 0 C3.66 1.32 4.32 2.64 5 4 C5.66 2.68 6.32 1.36 7 0 C7.66 0 8.32 0 9 0 C8.49202991 4.3177458 7.80317221 8.03302114 6 12 C5.01 12 4.02 12 3 12 C2.49166409 10.75336669 1.99368855 9.50250613 1.5 8.25 C1.2215625 7.55390625 0.943125 6.8578125 0.65625 6.140625 C0 4 0 4 0 0 Z " fill="#9C9C9C" transform="translate(149,108)"/>
<path d="M0 0 C1.670625 0.061875 1.670625 0.061875 3.375 0.125 C3.045 1.445 2.715 2.765 2.375 4.125 C0.725 4.125 -0.925 4.125 -2.625 4.125 C-2.295 5.445 -1.965 6.765 -1.625 8.125 C-0.305 8.125 1.015 8.125 2.375 8.125 C2.375 9.445 2.375 10.765 2.375 12.125 C-0.5 12.25 -0.5 12.25 -3.625 12.125 C-5.625 10.125 -5.625 10.125 -5.890625 8.25 C-5.88546875 7.54875 -5.8803125 6.8475 -5.875 6.125 C-5.88015625 5.42375 -5.8853125 4.7225 -5.890625 4 C-5.34417976 0.14273948 -3.61576724 0.12468163 0 0 Z " fill="#949494" transform="translate(116.625,107.875)"/>
<path d="M0 0 C3.0625 1.8125 3.0625 1.8125 5 4 C5 4.99 5 5.98 5 7 C4.34 7 3.68 7 3 7 C3 6.34 3 5.68 3 5 C-0.72231978 3.80885767 -4.11372361 3.66497617 -8 4 C-11.3832553 5.8646306 -11.3832553 5.8646306 -14 8 C-13.69209738 5.15190074 -13.34521809 3.41713852 -11.5 1.1875 C-7.69002089 -0.62224008 -4.13827785 -0.6774405 0 0 Z " fill="#0C0C0C" transform="translate(66,27)"/>
<path d="M0 0 C3.23326464 0.64314486 4.99958274 1.99033032 7.16015625 4.4296875 C7.16015625 5.4196875 7.16015625 6.4096875 7.16015625 7.4296875 C6.50015625 7.4296875 5.84015625 7.4296875 5.16015625 7.4296875 C5.16015625 6.7696875 5.16015625 6.1096875 5.16015625 5.4296875 C0.51781544 3.94413844 -5.27799976 3.49967658 -9.83984375 5.4296875 C-10.16984375 6.4196875 -10.49984375 7.4096875 -10.83984375 8.4296875 C-11.16984375 7.4396875 -11.49984375 6.4496875 -11.83984375 5.4296875 C-8.2271482 0.76814486 -5.68475311 -0.3226738 0 0 Z " fill="#070707" transform="translate(99.83984375,27.5703125)"/>
<path d="M0 0 C0 0.66 0 1.32 0 2 C-1.98 2 -3.96 2 -6 2 C-6.28875 2.886875 -6.5775 3.77375 -6.875 4.6875 C-7.83148748 7.50382424 -8.86798946 10.25083156 -10 13 C-11.32 12.67 -12.64 12.34 -14 12 C-13.63370166 5.65082873 -13.63370166 5.65082873 -10.6875 2.625 C-6.76113426 0.25091839 -4.60768364 0 0 0 Z " fill="#AFAFAF" transform="translate(109,64)"/>
<path d="M0 0 C0.33 0.99 0.66 1.98 1 3 C-0.216875 3.0825 -1.43375 3.165 -2.6875 3.25 C-6.83959203 3.78551717 -9.06270089 4.89485523 -12 8 C-13.80979141 11.11662908 -13.80979141 11.11662908 -15 14 C-15.75 12.375 -15.75 12.375 -16 10 C-12.34008875 3.24324077 -7.82965195 -1.85439125 0 0 Z " fill="#0F0F0F" transform="translate(137,56)"/>
<path d="M0 0 C0.33 0.99 0.66 1.98 1 3 C-1.04225211 5.04225211 -5.07915477 4.23055064 -7.875 4.25 C-8.97521484 4.2809375 -8.97521484 4.2809375 -10.09765625 4.3125 C-12.2421875 4.328125 -12.2421875 4.328125 -16 4 C-16.99 3.01 -17.98 2.02 -19 1 C-12.73 0.67 -6.46 0.34 0 0 Z " fill="#030303" transform="translate(200,80)"/>
<path d="M0 0 C2.31 0 4.62 0 7 0 C6.67 2.31 6.34 4.62 6 7 C4.68 7 3.36 7 2 7 C2 7.66 2 8.32 2 9 C3.65 9 5.3 9 7 9 C7 9.99 7 10.98 7 12 C4.69 12 2.38 12 0 12 C0 8.04 0 4.08 0 0 Z " fill="#A0A0A0" transform="translate(16,108)"/>
<path d="M0 0 C2.94982021 1.14186589 4.88437775 2.67281553 7 5 C5.35 5 3.7 5 2 5 C2 4.34 2 3.68 2 3 C1.48050781 3.28875 0.96101563 3.5775 0.42578125 3.875 C-6.50087873 7.56239016 -6.50087873 7.56239016 -11 7 C-11 6.01 -11 5.02 -11 4 C-10.37351562 3.79503906 -9.74703125 3.59007812 -9.1015625 3.37890625 C-8.28429687 3.10949219 -7.46703125 2.84007812 -6.625 2.5625 C-5.81289062 2.29566406 -5.00078125 2.02882812 -4.1640625 1.75390625 C-1.98968201 1.04820271 -1.98968201 1.04820271 0 0 Z " fill="#010101" transform="translate(127,42)"/>
<path d="M0 0 C1.10988281 0.21462891 1.10988281 0.21462891 2.2421875 0.43359375 C2.9021875 1.42359375 3.5621875 2.41359375 4.2421875 3.43359375 C3.51773438 3.459375 2.79328125 3.48515625 2.046875 3.51171875 C-4.11999333 3.87350836 -7.98533963 4.4350354 -12.7578125 8.43359375 C-12.3984953 5.91837335 -11.69540815 4.33591737 -10.3203125 2.18359375 C-6.84804955 -0.18770778 -4.1199169 -0.00611264 0 0 Z " fill="#0C0C0C" transform="translate(148.7578125,69.56640625)"/>
<path d="M0 0 C2.97 0 5.94 0 9 0 C9 0.99 9 1.98 9 3 C8.01 3 7.02 3 6 3 C6 5.97 6 8.94 6 12 C5.01 12 4.02 12 3 12 C3 9.03 3 6.06 3 3 C2.01 2.67 1.02 2.34 0 2 C0 1.34 0 0.68 0 0 Z " fill="#747474" transform="translate(184,108)"/>
<path d="M0 0 C2.97 0 5.94 0 9 0 C9 0.99 9 1.98 9 3 C8.01 3 7.02 3 6 3 C6 5.97 6 8.94 6 12 C5.01 12 4.02 12 3 12 C3 9.03 3 6.06 3 3 C2.01 2.67 1.02 2.34 0 2 C0 1.34 0 0.68 0 0 Z " fill="#747474" transform="translate(61,108)"/>
<path d="M0 0 C1.98 0 3.96 0 6 0 C6 2.31 6 4.62 6 7 C4.68 7 3.36 7 2 7 C2 7.66 2 8.32 2 9 C3.32 9.33 4.64 9.66 6 10 C6 10.66 6 11.32 6 12 C4.02 12 2.04 12 0 12 C0 8.04 0 4.08 0 0 Z " fill="#A3A3A3" transform="translate(162,108)"/>
<path d="M0 0 C0.886875 0.78375 1.77375 1.5675 2.6875 2.375 C7.1356488 6.06269245 11.30220306 7.20495857 17 8 C16.67 8.66 16.34 9.32 16 10 C11.98009854 10.49223283 8.47097698 10.81543289 4.84375 8.8046875 C2.97180968 7.27798208 1.40442787 5.96890853 0 4 C0 2.68 0 1.36 0 0 Z " fill="#050505" transform="translate(94,88)"/>
<path d="M0 0 C0.87785156 0.01546875 1.75570312 0.0309375 2.66015625 0.046875 C4.9375 0.25 4.9375 0.25 6.9375 1.25 C6.9375 1.91 6.9375 2.57 6.9375 3.25 C6.20144531 3.27578125 5.46539062 3.3015625 4.70703125 3.328125 C-2.98191156 3.74060043 -2.98191156 3.74060043 -9.0625 8.25 C-8.70990435 5.64079216 -8.42235367 3.73477103 -6.8359375 1.59765625 C-4.46060456 -0.2073875 -2.95157031 -0.08693874 0 0 Z " fill="#040404" transform="translate(143.0625,28.75)"/>
<path d="M0 0 C1.9375 1.375 1.9375 1.375 3 3 C3 3.66 3 4.32 3 5 C2.41992188 4.90460938 1.83984375 4.80921875 1.2421875 4.7109375 C-3.76088419 4.00093063 -7.24022962 3.92522829 -12 6 C-9.45602595 0.12929064 -6.16672168 -0.55060015 0 0 Z " fill="#090909" transform="translate(193,72)"/>
<path d="M0 0 C0.66 0 1.32 0 2 0 C2 0.99 2 1.98 2 3 C-0.046875 4.82421875 -0.046875 4.82421875 -2.75 6.6875 C-3.63171875 7.31011719 -4.5134375 7.93273437 -5.421875 8.57421875 C-8 10 -8 10 -12 10 C-10.7308453 6.1925359 -9.42849251 5.81326707 -6 3.875 C-2.81043387 2.19447491 -2.81043387 2.19447491 0 0 Z " fill="#060606" transform="translate(52,16)"/>
<path d="M0 0 C4.00647751 1.3354925 4.75744636 3.52765887 7 7 C7.66 7.33 8.32 7.66 9 8 C9 8.66 9 9.32 9 10 C8.01 10 7.02 10 6 10 C5.34 9.01 4.68 8.02 4 7 C3.67 7.99 3.34 8.98 3 10 C2.01 10 1.02 10 0 10 C0 6.7 0 3.4 0 0 Z " fill="#757575" transform="translate(216,110)"/>
<path d="M0 0 C3.96 0 7.92 0 12 0 C12.66 1.32 13.32 2.64 14 4 C13.67 4.99 13.34 5.98 13 7 C12.67 5.68 12.34 4.36 12 3 C8.04 3 4.08 3 0 3 C0 2.01 0 1.02 0 0 Z " fill="#000000" transform="translate(21,25)"/>
<path d="M0 0 C3.3 0.33 6.6 0.66 10 1 C13.07692308 7.4 13.07692308 7.4 12.6875 10.4375 C12.460625 10.953125 12.23375 11.46875 12 12 C11.67 10.88625 11.34 9.7725 11 8.625 C10.26740638 6.64804999 10.26740638 6.64804999 9 5 C6.36928968 3.91179453 3.816013 3.54503477 1 3 C0.67 2.01 0.34 1.02 0 0 Z " fill="#060606" transform="translate(1,5)"/>
<path d="M0 0 C1.94268841 2.91403262 3.46395304 5.85808576 5 9 C7.46800047 7.84826645 9.04783565 6.95216435 11 5 C10.5206753 9.31392226 9.2542015 11.16569547 6 14 C2.51038019 10.97566283 1.11867051 8.47468202 0 4 C0 2.68 0 1.36 0 0 Z " fill="#0A0A0A" transform="translate(116,79)"/>
<path d="M0 0 C2.6875 -0.0625 2.6875 -0.0625 6 1 C9.12629563 4.84526284 10.87986279 8.6304358 11.3125 13.5625 C11.1578125 14.7690625 11.1578125 14.7690625 11 16 C9.81610521 13.63221042 8.64567016 11.26181283 7.5 8.875 C6.16410963 5.96422524 6.16410963 5.96422524 4 4 C1.42938689 3.35232207 1.42938689 3.35232207 -1 3 C-0.67 2.01 -0.34 1.02 0 0 Z " fill="#0E0E0E" transform="translate(90,49)"/>
<path d="M0 0 C3.75376152 1.25125384 4.24073289 2.5652404 6 6 C6 6.66 6 7.32 6 8 C6.99 8 7.98 8 9 8 C9 8.66 9 9.32 9 10 C7.125 9.6875 7.125 9.6875 5 9 C4.34 8.01 3.68 7.02 3 6 C2.67 7.32 2.34 8.64 2 10 C1.34 10 0.68 10 0 10 C0 6.7 0 3.4 0 0 Z " fill="#6C6C6C" transform="translate(172,110)"/>
<path d="M0 0 C3.75376152 1.25125384 4.24073289 2.5652404 6 6 C6 6.66 6 7.32 6 8 C6.99 8 7.98 8 9 8 C9 8.66 9 9.32 9 10 C7.125 9.6875 7.125 9.6875 5 9 C4.34 8.01 3.68 7.02 3 6 C2.67 7.32 2.34 8.64 2 10 C1.34 10 0.68 10 0 10 C0 6.7 0 3.4 0 0 Z " fill="#6C6C6C" transform="translate(137,110)"/>
<path d="M0 0 C0.94875 0.04125 1.8975 0.0825 2.875 0.125 C3.535 1.445 4.195 2.765 4.875 4.125 C2.895 3.465 0.915 2.805 -1.125 2.125 C-1.8128236 4.47867713 -1.8128236 4.47867713 -2.125 7.125 C-1.135 8.61 -1.135 8.61 -0.125 10.125 C-4 9.25 -4 9.25 -5.125 8.125 C-5.3125 5.1875 -5.3125 5.1875 -5.125 2.125 C-3.125 0.125 -3.125 0.125 0 0 Z " fill="#F5F5F5" transform="translate(128.125,107.875)"/>
<path d="M0 0 C0.94875 0.04125 1.8975 0.0825 2.875 0.125 C3.535 1.445 4.195 2.765 4.875 4.125 C2.895 3.465 0.915 2.805 -1.125 2.125 C-1.8128236 4.47867713 -1.8128236 4.47867713 -2.125 7.125 C-1.135 8.61 -1.135 8.61 -0.125 10.125 C-4 9.25 -4 9.25 -5.125 8.125 C-5.3125 5.1875 -5.3125 5.1875 -5.125 2.125 C-3.125 0.125 -3.125 0.125 0 0 Z " fill="#F5F5F5" transform="translate(42.125,107.875)"/>
<path d="M0 0 C2.125 0.375 2.125 0.375 4 1 C3.01 1.66 2.02 2.32 1 3 C1.33 4.65 1.66 6.3 2 8 C3.65 7.67 5.3 7.34 7 7 C6.67 7.99 6.34 8.98 6 10 C3.125 10.1875 3.125 10.1875 0 10 C-2.14915785 6.77626323 -2.38286803 5.73296326 -2 2 C-1.34 1.34 -0.68 0.68 0 0 Z " fill="#F8F8F8" transform="translate(204,108)"/>
<path d="M0 0 C0.33 0.99 0.66 1.98 1 3 C-0.9375 5.6875 -0.9375 5.6875 -3 8 C-3 7.01 -3 6.02 -3 5 C-3.391875 5.515625 -3.78375 6.03125 -4.1875 6.5625 C-4.785625 7.036875 -5.38375 7.51125 -6 8 C-8.6875 7.6875 -8.6875 7.6875 -11 7 C-10.67 6.01 -10.34 5.02 -10 4 C-6.97265625 3.75585938 -6.97265625 3.75585938 -3.9453125 3.51171875 C-1.60480784 3.12606964 -1.60480784 3.12606964 0 0 Z " fill="#363636" transform="translate(158,31)"/>
<path d="M0 0 C1.65 0 3.3 0 5 0 C4.67 0.66 4.34 1.32 4 2 C3.34 1.67 2.68 1.34 2 1 C2 1.99 2 2.98 2 4 C2.99 4.66 3.98 5.32 5 6 C5 6.66 5 7.32 5 8 C5.99 8.33 6.98 8.66 8 9 C7.01 9.33 6.02 9.66 5 10 C4.34 9.01 3.68 8.02 3 7 C2.67 7.99 2.34 8.98 2 10 C1.34 10 0.68 10 0 10 C0 6.7 0 3.4 0 0 Z " fill="#686868" transform="translate(51,110)"/>
<path d="M0 0 C1.4540625 0.0309375 1.4540625 0.0309375 2.9375 0.0625 C2.9375 1.3825 2.9375 2.7025 2.9375 4.0625 C1.6175 4.3925 0.2975 4.7225 -1.0625 5.0625 C-0.4025 5.3925 0.2575 5.7225 0.9375 6.0625 C0.9375 6.7225 0.9375 7.3825 0.9375 8.0625 C-1.5375 7.0725 -1.5375 7.0725 -4.0625 6.0625 C-4.105221 4.39638095 -4.10313832 2.72867115 -4.0625 1.0625 C-3.0625 0.0625 -3.0625 0.0625 0 0 Z " fill="#7E7E7E" transform="translate(30.0625,107.9375)"/>
<path d="M0 0 C0.66 0.66 1.32 1.32 2 2 C2.99 1.67 3.98 1.34 5 1 C5 1.99 5 2.98 5 4 C4.21625 4.061875 3.4325 4.12375 2.625 4.1875 C1.75875 4.455625 0.8925 4.72375 0 5 C-1.18391223 7.37625345 -1.18391223 7.37625345 -2 10 C-3.625 11.8125 -3.625 11.8125 -5 13 C-4.39254603 8.14036821 -2.27241033 4.2594482 0 0 Z " fill="#0C0C0C" transform="translate(107,75)"/>
<path d="M0 0 C0.33 0.99 0.66 1.98 1 3 C-1.0625 5.0625 -1.0625 5.0625 -4 7 C-7.8125 6.75 -7.8125 6.75 -11 6 C-10.484375 5.7525 -9.96875 5.505 -9.4375 5.25 C-6.22815849 3.60418384 -3.12414336 1.8023904 0 0 Z " fill="#040404" transform="translate(106,41)"/>
<path d="M0 0 C1.65 0.33 3.3 0.66 5 1 C5 2.32 5 3.64 5 5 C3.02 5 1.04 5 -1 5 C-0.67 3.35 -0.34 1.7 0 0 Z " fill="#FBFBFB" transform="translate(117,15)"/>
<path d="M0 0 C0.33 0.99 0.66 1.98 1 3 C-1.25 5.0625 -1.25 5.0625 -4 7 C-6.3125 6.75 -6.3125 6.75 -8 6 C-7.67 5.01 -7.34 4.02 -7 3 C-5.125 2.4375 -5.125 2.4375 -3 2 C-2.01 1.34 -1.02 0.68 0 0 Z " fill="#030303" transform="translate(115,42)"/>
<path d="M0 0 C2.9375 0.375 2.9375 0.375 6 1 C7.4783226 3.95664519 7.06032783 6.74229737 7 10 C6.67 10 6.34 10 6 10 C6 8.02 6 6.04 6 4 C3.03 3.505 3.03 3.505 0 3 C0 2.01 0 1.02 0 0 Z " fill="#191919" transform="translate(109,69)"/>
<path d="M0 0 C0.5775 0.763125 1.155 1.52625 1.75 2.3125 C3.83357198 5.00891579 3.83357198 5.00891579 6.25 6.6875 C6.8275 7.120625 7.405 7.55375 8 8 C8 8.66 8 9.32 8 10 C4.9054129 9.6684371 3.97195314 8.97117406 1.75 6.6875 C0 4 0 4 0 0 Z " fill="#202020" transform="translate(45,35)"/>
<path d="M0 0 C0.66 0 1.32 0 2 0 C2 3.96 2 7.92 2 12 C1.34 12 0.68 12 0 12 C0 8.04 0 4.08 0 0 Z " fill="#C6C6C6" transform="translate(196,108)"/>
<path d="M0 0 C0.66 0 1.32 0 2 0 C2.33 2.31 2.66 4.62 3 7 C1.125 6.75 1.125 6.75 -1 6 C-2.25 3.9375 -2.25 3.9375 -3 2 C-2.01 2 -1.02 2 0 2 C0 1.34 0 0.68 0 0 Z " fill="#606060" transform="translate(10,113)"/>
<path d="M0 0 C0.99 0 1.98 0 3 0 C3.33 1.98 3.66 3.96 4 6 C3.01 6.33 2.02 6.66 1 7 C0.67 4.69 0.34 2.38 0 0 Z " fill="#BBBBBB" transform="translate(149,108)"/>
<path d="M0 0 C2.31 0 4.62 0 7 0 C7 0.99 7 1.98 7 3 C4.69 3 2.38 3 0 3 C0 2.01 0 1.02 0 0 Z " fill="#000000" transform="translate(169,66)"/>
<path d="M0 0 C2.97 0 5.94 0 9 0 C8.01 0.66 7.02 1.32 6 2 C5.42251197 3.96361864 5.42251197 3.96361864 5.3125 6.125 C5.1578125 8.043125 5.1578125 8.043125 5 10 C4.67 10 4.34 10 4 10 C3.83723958 7.98177083 3.67447917 5.96354167 3.51171875 3.9453125 C3.12606964 1.60480784 3.12606964 1.60480784 0 0 Z " fill="#FFFFFF" transform="translate(184,108)"/>
<path d="M0 0 C2.97 0 5.94 0 9 0 C8.01 0.66 7.02 1.32 6 2 C5.42251197 3.96361864 5.42251197 3.96361864 5.3125 6.125 C5.1578125 8.043125 5.1578125 8.043125 5 10 C4.67 10 4.34 10 4 10 C3.83723958 7.98177083 3.67447917 5.96354167 3.51171875 3.9453125 C3.12606964 1.60480784 3.12606964 1.60480784 0 0 Z " fill="#FFFFFF" transform="translate(61,108)"/>
<path d="M0 0 C1.1446875 0.2784375 1.1446875 0.2784375 2.3125 0.5625 C5.08967375 1.22819173 5.08967375 1.22819173 8 0 C8.99 0.99 9.98 1.98 11 3 C7.7 3 4.4 3 1 3 C0.67 2.01 0.34 1.02 0 0 Z " fill="#050505" transform="translate(85,117)"/>
<path d="M0 0 C1.2065625 0.0309375 1.2065625 0.0309375 2.4375 0.0625 C1.4375 3.0625 1.4375 3.0625 -0.625 4.25 C-1.264375 4.518125 -1.90375 4.78625 -2.5625 5.0625 C-3.125 3.125 -3.125 3.125 -3.5625 1.0625 C-2.5625 0.0625 -2.5625 0.0625 0 0 Z " fill="#FBFBFB" transform="translate(89.5625,107.9375)"/>
<path d="M0 0 C0.33 0.99 0.66 1.98 1 3 C0.34 3.66 -0.32 4.32 -1 5 C-3.125 4.625 -3.125 4.625 -5 4 C-5 3.34 -5 2.68 -5 2 C-3.35 1.34 -1.7 0.68 0 0 Z " fill="#080808" transform="translate(230,89)"/>
</svg>
